<svg xmlns="http://www.w3.org/2000/svg" fill="none" viewBox="0 0 24 24" width="24" height="24">
    <path fill="#2c313c"
        d="M4.5 3C4.5 2.44772 4.94772 2 5.5 2H15.75L19.5 5.75V21C19.5 21.5523 19.0523 22 18.5 22H5.5C4.94772 22 4.5 21.5523 4.5 21V3Z"
        class="color2C313C svgShape"></path>
    <path fill="#8d96a5" d="M15.75 2L19.5 5.75H16.75C16.1977 5.75 15.75 5.30228 15.75 4.75V2Z"
        class="color8D96A5 svgShape"></path>
    <path fill="#de6b74"
        d="M6.55178 5.30178C6.45415 5.20415 6.45415 5.04585 6.55178 4.94822L7.56028 3.93972C7.60172 3.89828 7.65792 3.875 7.71653 3.875V3.875C7.91339 3.875 8.01198 4.11302 7.87278 4.25222L7.07071 5.05429C7.03166 5.09334 7.03166 5.15666 7.07071 5.19571L7.87278 5.99778C8.01198 6.13698 7.91339 6.375 7.71653 6.375V6.375C7.65792 6.375 7.60172 6.35172 7.56028 6.31028L6.55178 5.30178Z"
        class="colorDE6B74 svgShape"></path>
    <path fill="#e5c07b"
        d="M8.875 5.125L9.4309 4.0132C9.47325 3.9285 9.55982 3.875 9.65451 3.875H9.72049C9.90634 3.875 10.0272 4.07058 9.9441 4.2368L9.5 5.125L8.9441 6.2368C8.90175 6.3215 8.81518 6.375 8.72049 6.375H8.65451C8.46866 6.375 8.34779 6.17942 8.4309 6.0132L8.875 5.125Z"
        class="colorE5C07B svgShape"></path>
    <path fill="#61aeee"
        d="M11.8232 5.30178C11.9209 5.20415 11.9209 5.04585 11.8232 4.94822L10.8147 3.93972C10.7733 3.89828 10.7171 3.875 10.6585 3.875V3.875C10.4616 3.875 10.363 4.11302 10.5022 4.25222L11.3043 5.05429C11.3433 5.09334 11.3433 5.15666 11.3043 5.19571L10.5022 5.99778C10.363 6.13698 10.4616 6.375 10.6585 6.375V6.375C10.7171 6.375 10.7733 6.35172 10.8147 6.31028L11.8232 5.30178Z"
        class="color61AEEE svgShape"></path>
    <path fill="#ffffff"
        d="M8.73352 18.5973C8.72498 18.7828 8.67493 18.947 8.58337 19.0898 8.49182 19.2314 8.36304 19.3413 8.19702 19.4194 8.03223 19.4976 7.84363 19.5366 7.63123 19.5366 7.28088 19.5366 7.005 19.4225 6.80359 19.1942 6.60217 18.9659 6.50146 18.6437 6.50146 18.2274V18.0956C6.50146 17.8344 6.54663 17.6061 6.63696 17.4108 6.72852 17.2142 6.85974 17.0629 7.03064 16.9567 7.20154 16.8492 7.39929 16.7955 7.6239 16.7955 7.94739 16.7955 8.2074 16.881 8.40393 17.0519 8.60046 17.2216 8.71216 17.4559 8.73901 17.755H8.09814C8.09326 17.5927 8.05237 17.4761 7.97546 17.4053 7.89856 17.3345 7.78137 17.2991 7.6239 17.2991 7.46399 17.2991 7.3468 17.3589 7.27234 17.4785 7.19788 17.5981 7.15881 17.7892 7.15515 18.0516V18.2402C7.15515 18.5247 7.19055 18.7279 7.26135 18.85 7.33337 18.972 7.45667 19.0331 7.63123 19.0331 7.77893 19.0331 7.89185 18.9983 7.96997 18.9287 8.0481 18.8591 8.0896 18.7487 8.09448 18.5973H8.73352zM10.4126 18.7914C10.4126 18.6974 10.379 18.6241 10.3119 18.5717 10.246 18.5192 10.1294 18.4648 9.96216 18.4087 9.79492 18.3525 9.6582 18.2982 9.552 18.2457 9.20654 18.076 9.03381 17.8429 9.03381 17.5463 9.03381 17.3986 9.07654 17.2686 9.16199 17.1562 9.24866 17.0427 9.37073 16.9548 9.5282 16.8926 9.68567 16.8291 9.86267 16.7974 10.0592 16.7974 10.2509 16.7974 10.4224 16.8315 10.5737 16.8999 10.7263 16.9683 10.8447 17.0659 10.929 17.1929 11.0132 17.3186 11.0553 17.4626 11.0553 17.625H10.4144C10.4144 17.5164 10.3809 17.4321 10.3137 17.3723 10.2478 17.3125 10.1581 17.2826 10.0446 17.2826 9.92981 17.2826 9.83887 17.3082 9.77173 17.3595 9.70581 17.4095 9.67285 17.4736 9.67285 17.5518 9.67285 17.6201 9.70947 17.6824 9.78271 17.7385 9.85596 17.7935 9.98474 17.8508 10.1691 17.9106 10.3534 17.9692 10.5048 18.0327 10.6232 18.1011 10.9113 18.2671 11.0553 18.496 11.0553 18.7877 11.0553 19.0209 10.9674 19.204 10.7916 19.337 10.6158 19.4701 10.3748 19.5366 10.0684 19.5366 9.85229 19.5366 9.65637 19.4982 9.48059 19.4213 9.30603 19.3431 9.17419 19.2369 9.08508 19.1027 8.99719 18.9672 8.95325 18.8115 8.95325 18.6357H9.59778C9.59778 18.7786 9.6344 18.8842 9.70764 18.9525 9.7821 19.0197 9.90234 19.0532 10.0684 19.0532 10.1746 19.0532 10.2582 19.0306 10.3192 18.9855 10.3815 18.9391 10.4126 18.8744 10.4126 18.7914zM12.76 18.7914C12.76 18.6974 12.7264 18.6241 12.6593 18.5717 12.5934 18.5192 12.4768 18.4648 12.3096 18.4087 12.1423 18.3525 12.0056 18.2982 11.8994 18.2457 11.554 18.076 11.3812 17.8429 11.3812 17.5463 11.3812 17.3986 11.424 17.2686 11.5094 17.1562 11.5961 17.0427 11.7181 16.9548 11.8756 16.8926 12.0331 16.8291 12.2101 16.7974 12.4066 16.7974 12.5983 16.7974 12.7698 16.8315 12.9211 16.8999 13.0737 16.9683 13.1921 17.0659 13.2764 17.1929 13.3606 17.3186 13.4027 17.4626 13.4027 17.625H12.7618C12.7618 17.5164 12.7283 17.4321 12.6611 17.3723 12.5952 17.3125 12.5055 17.2826 12.392 17.2826 12.2772 17.2826 12.1863 17.3082 12.1191 17.3595 12.0532 17.4095 12.0203 17.4736 12.0203 17.5518 12.0203 17.6201 12.0569 17.6824 12.1301 17.7385 12.2034 17.7935 12.3322 17.8508 12.5165 17.9106 12.7008 17.9692 12.8522 18.0327 12.9706 18.1011 13.2587 18.2671 13.4027 18.496 13.4027 18.7877 13.4027 19.0209 13.3148 19.204 13.139 19.337 12.9633 19.4701 12.7222 19.5366 12.4158 19.5366 12.1997 19.5366 12.0038 19.4982 11.828 19.4213 11.6534 19.3431 11.5216 19.2369 11.4325 19.1027 11.3446 18.9672 11.3007 18.8115 11.3007 18.6357H11.9452C11.9452 18.7786 11.9818 18.8842 12.0551 18.9525 12.1295 19.0197 12.2498 19.0532 12.4158 19.0532 12.522 19.0532 12.6056 19.0306 12.6666 18.9855 12.7289 18.9391 12.76 18.8744 12.76 18.7914z"
        class="colorfff svgShape"></path>
</svg>