<svg xmlns="http://www.w3.org/2000/svg" fill="none" viewBox="0 0 24 24" width="24" height="24">
    <path fill="#2c313c"
        d="M4.5 3C4.5 2.44772 4.94772 2 5.5 2H15.75L19.5 5.75V21C19.5 21.5523 19.0523 22 18.5 22H5.5C4.94772 22 4.5 21.5523 4.5 21V3Z"
        class="color2C313C svgShape"></path>
    <path fill="#8d96a5" d="M15.75 2L19.5 5.75H16.75C16.1977 5.75 15.75 5.30228 15.75 4.75V2Z"
        class="color8D96A5 svgShape"></path>
    <path fill="#de6b74"
        d="M6.55178 5.30178C6.45415 5.20415 6.45415 5.04585 6.55178 4.94822L7.56028 3.93972C7.60172 3.89828 7.65792 3.875 7.71653 3.875V3.875C7.91339 3.875 8.01198 4.11302 7.87278 4.25222L7.07071 5.05429C7.03166 5.09334 7.03166 5.15666 7.07071 5.19571L7.87278 5.99778C8.01198 6.13698 7.91339 6.375 7.71653 6.375V6.375C7.65792 6.375 7.60172 6.35172 7.56028 6.31028L6.55178 5.30178Z"
        class="colorDE6B74 svgShape"></path>
    <path fill="#e5c07b"
        d="M8.875 5.125L9.4309 4.0132C9.47325 3.9285 9.55982 3.875 9.65451 3.875H9.72049C9.90634 3.875 10.0272 4.07058 9.9441 4.2368L9.5 5.125L8.9441 6.2368C8.90175 6.3215 8.81518 6.375 8.72049 6.375H8.65451C8.46866 6.375 8.34779 6.17942 8.4309 6.0132L8.875 5.125Z"
        class="colorE5C07B svgShape"></path>
    <path fill="#61aeee"
        d="M11.8232 5.30178C11.9209 5.20415 11.9209 5.04585 11.8232 4.94822L10.8147 3.93972C10.7733 3.89828 10.7171 3.875 10.6585 3.875V3.875C10.4616 3.875 10.363 4.11302 10.5022 4.25222L11.3043 5.05429C11.3433 5.09334 11.3433 5.15666 11.3043 5.19571L10.5022 5.99778C10.363 6.13698 10.4616 6.375 10.6585 6.375V6.375C10.7171 6.375 10.7733 6.35172 10.8147 6.31028L11.8232 5.30178Z"
        class="color61AEEE svgShape"></path>
    <path fill="#ffffff"
        d="M8.80481 19.5H8.16577V18.3867H7.21912V19.5H6.57642V16.834H7.21912V17.8923H8.16577V16.834H8.80481V19.5zM11.2511 17.3302H10.4509V19.5H9.80823V17.3302H9.02271V16.834H11.2511V17.3302zM12.368 16.834L12.9631 18.6888 13.5564 16.834H14.4023V19.5H13.7578V18.8774L13.8201 17.603 13.1755 19.5H12.7507L12.1044 17.6012 12.1666 18.8774V19.5H11.5239V16.834H12.368zM15.4552 19.0056H16.574V19.5H14.8125V16.834H15.4552V19.0056z"
        class="colorfff svgShape"></path>
</svg>