<svg xmlns="http://www.w3.org/2000/svg" fill="none" viewBox="0 0 24 24" width="24" height="24">
    <path fill="#2c313c"
        d="M4.5 3C4.5 2.44772 4.94772 2 5.5 2H15.75L19.5 5.75V21C19.5 21.5523 19.0523 22 18.5 22H5.5C4.94772 22 4.5 21.5523 4.5 21V3Z"
        class="color2C313C svgShape"></path>
    <path fill="#8d96a5" d="M15.75 2L19.5 5.75H16.75C16.1977 5.75 15.75 5.30228 15.75 4.75V2Z"
        class="color8D96A5 svgShape"></path>
    <path fill="#de6b74"
        d="M6.55172 5.30178C6.45408 5.20415 6.45408 5.04585 6.55172 4.94822L7.56022 3.93972C7.60166 3.89828 7.65786 3.875 7.71647 3.875V3.875C7.91333 3.875 8.01192 4.11302 7.87272 4.25222L7.07065 5.05429C7.0316 5.09334 7.0316 5.15666 7.07065 5.19571L7.87272 5.99778C8.01192 6.13698 7.91333 6.375 7.71647 6.375V6.375C7.65786 6.375 7.60166 6.35172 7.56022 6.31028L6.55172 5.30178Z"
        class="colorDE6B74 svgShape"></path>
    <path fill="#e5c07b"
        d="M8.87494 5.125L9.43084 4.0132C9.47319 3.9285 9.55975 3.875 9.65445 3.875H9.72043C9.90628 3.875 10.0271 4.07058 9.94404 4.2368L9.49994 5.125L8.94404 6.2368C8.90169 6.3215 8.81512 6.375 8.72043 6.375H8.65445C8.4686 6.375 8.34773 6.17942 8.43084 6.0132L8.87494 5.125Z"
        class="colorE5C07B svgShape"></path>
    <path fill="#61aeee"
        d="M11.8232 5.30178C11.9208 5.20415 11.9208 5.04585 11.8232 4.94822L10.8147 3.93972C10.7732 3.89828 10.717 3.875 10.6584 3.875V3.875C10.4615 3.875 10.363 4.11302 10.5022 4.25222L11.3042 5.05429C11.3433 5.09334 11.3433 5.15666 11.3042 5.19571L10.5022 5.99778C10.363 6.13698 10.4615 6.375 10.6584 6.375V6.375C10.717 6.375 10.7732 6.35172 10.8147 6.31028L11.8232 5.30178Z"
        class="color61AEEE svgShape"></path>
    <path fill="#ffffff"
        d="M7.63843 16.834H8.2793V18.6632C8.2793 18.8329 8.23962 18.9843 8.16028 19.1173 8.08215 19.2504 7.97229 19.3535 7.83069 19.4268 7.69031 19.5 7.53345 19.5366 7.36011 19.5366 7.06958 19.5366 6.84375 19.4634 6.68262 19.3169 6.52148 19.1704 6.44092 18.9629 6.44092 18.6943H7.08545C7.08545 18.8164 7.1062 18.9049 7.14771 18.9598 7.19043 19.0148 7.26123 19.0422 7.36011 19.0422 7.44922 19.0422 7.51758 19.0093 7.56519 18.9434 7.61401 18.8762 7.63843 18.7828 7.63843 18.6632V16.834zM10.0609 18.7914C10.0609 18.6974 10.0273 18.6241 9.96021 18.5717 9.89429 18.5192 9.77771 18.4648 9.61047 18.4087 9.44324 18.3525 9.30652 18.2982 9.20032 18.2457 8.85486 18.076 8.68213 17.8429 8.68213 17.5463 8.68213 17.3986 8.72485 17.2686 8.8103 17.1562 8.89697 17.0427 9.01904 16.9548 9.17651 16.8926 9.33398 16.8291 9.51099 16.7974 9.70752 16.7974 9.89917 16.7974 10.0707 16.8315 10.222 16.8999 10.3746 16.9683 10.493 17.0659 10.5773 17.1929 10.6615 17.3186 10.7036 17.4626 10.7036 17.625H10.0627C10.0627 17.5164 10.0292 17.4321 9.96204 17.3723 9.89612 17.3125 9.8064 17.2826 9.69287 17.2826 9.57812 17.2826 9.48718 17.3082 9.42004 17.3595 9.35413 17.4095 9.32117 17.4736 9.32117 17.5518 9.32117 17.6201 9.35779 17.6824 9.43103 17.7385 9.50427 17.7935 9.63306 17.8508 9.81738 17.9106 10.0017 17.9692 10.1531 18.0327 10.2715 18.1011 10.5596 18.2671 10.7036 18.496 10.7036 18.7877 10.7036 19.0209 10.6157 19.204 10.4399 19.337 10.2642 19.4701 10.0231 19.5366 9.71667 19.5366 9.50061 19.5366 9.30469 19.4982 9.12891 19.4213 8.95435 19.3431 8.82251 19.2369 8.7334 19.1027 8.64551 18.9672 8.60156 18.8115 8.60156 18.6357H9.24609C9.24609 18.7786 9.28271 18.8842 9.35596 18.9525 9.43042 19.0197 9.55066 19.0532 9.71667 19.0532 9.82288 19.0532 9.90649 19.0306 9.96753 18.9855 10.0298 18.9391 10.0609 18.8744 10.0609 18.7914z"
        class="colorfff svgShape"></path>
</svg>