<svg xmlns="http://www.w3.org/2000/svg" fill="none" viewBox="0 0 24 24" width="24" height="24">
    <path fill="#f2ba10"
        d="M4.5 3C4.5 2.44772 4.94772 2 5.5 2H15.75L19.5 5.75V21C19.5 21.5523 19.0523 22 18.5 22H5.5C4.94772 22 4.5 21.5523 4.5 21V3Z"
        class="colorF2BA10 svgShape"></path>
    <path fill="#f8dd87" d="M15.75 2L19.5 5.75H16.75C16.1977 5.75 15.75 5.30228 15.75 4.75V2Z"
        class="colorF8DD87 svgShape"></path>
    <path fill="#ffffff" fill-rule="evenodd"
        d="M6.375 4.125C6.375 3.98693 6.48693 3.875 6.625 3.875H8C8.13807 3.875 8.25 3.98693 8.25 4.125V4.5H9.875C10.0131 4.5 10.125 4.61193 10.125 4.75V6.75C10.125 6.88807 10.0131 7 9.875 7H6.625C6.48693 7 6.375 6.88807 6.375 6.75V4.5V4.125ZM8.875 4.7875C8.875 4.73227 8.91977 4.6875 8.975 4.6875H9.0875C9.14273 4.6875 9.1875 4.73227 9.1875 4.7875V4.9C9.1875 4.95523 9.14273 5 9.0875 5H8.975C8.91977 5 8.875 4.95523 8.875 4.9V4.7875ZM8.875 5.225C8.875 5.16977 8.91977 5.125 8.975 5.125H9.0875C9.14273 5.125 9.1875 5.16977 9.1875 5.225V5.3375C9.1875 5.39273 9.14273 5.4375 9.0875 5.4375H8.975C8.91977 5.4375 8.875 5.39273 8.875 5.3375V5.225ZM8.975 5.5625C8.91977 5.5625 8.875 5.60727 8.875 5.6625V5.875H8.82499C8.76976 5.875 8.72499 5.91977 8.72499 5.975V6.4C8.72499 6.45523 8.76976 6.5 8.82499 6.5H9.24999C9.30522 6.5 9.34999 6.45523 9.34999 6.4V5.975C9.34999 5.91977 9.30522 5.875 9.24999 5.875H9.1875V5.6625C9.1875 5.60727 9.14273 5.5625 9.0875 5.5625H8.975ZM8.97501 6.0375C8.91979 6.0375 8.87501 6.08227 8.87501 6.1375V6.25C8.87501 6.30522 8.91979 6.35 8.97501 6.35H9.08751C9.14274 6.35 9.18751 6.30522 9.18751 6.25V6.1375C9.18751 6.08227 9.14274 6.0375 9.08751 6.0375H8.97501Z"
        clip-rule="evenodd" class="colorfff svgShape"></path>
    <path fill="#ffffff"
        d="M7.29785 19.0056H8.57227V19.5H6.49585V19.1613L7.7666 17.3302H6.48853V16.834H8.55945V17.1636L7.29785 19.0056zM9.55005 19.5H8.90918V16.834H9.55005V19.5zM10.6395 18.5955V19.5H9.99683V16.834H11.0607C11.2645 16.834 11.4446 16.8718 11.6008 16.9475 11.7583 17.022 11.8798 17.1288 11.9652 17.2679 12.0519 17.4059 12.0952 17.5627 12.0952 17.7385 12.0952 17.9985 12.0018 18.2067 11.8151 18.3629 11.6295 18.5179 11.3744 18.5955 11.0497 18.5955H10.6395zM10.6395 18.0992H11.0607C11.1852 18.0992 11.2798 18.0681 11.3445 18.0059 11.4104 17.9436 11.4434 17.8557 11.4434 17.7422 11.4434 17.6177 11.4098 17.5182 11.3427 17.4437 11.2755 17.3693 11.184 17.3314 11.068 17.3302H10.6395V18.0992z"
        class="colorfff svgShape"></path>
</svg>